<?xml version="1.0" standalone="no"?>
<!DOCTYPE svg PUBLIC "-//W3C//DTD SVG 1.1//EN" "http://www.w3.org/Graphics/SVG/1.1/DTD/svg11.dtd">
<svg width="200mm" height="200mm" viewBox="-100 -100 200 200" xmlns="http://www.w3.org/2000/svg" version="1.1">
<title>OpenSCAD Model</title>
<path d="
M 100,-0 L 97.8148,-20.7912 L 91.3545,-40.6737 L 80.9017,-58.7785 L 66.9131,-74.3145 L 50,-86.6025
 L 30.9017,-95.1057 L 10.4528,-99.4522 L -10.4528,-99.4522 L -30.9017,-95.1057 L -50,-86.6025 L -66.9131,-74.3145
 L -80.9017,-58.7785 L -91.3545,-40.6737 L -97.8148,-20.7912 L -100,0 L -97.8148,20.7912 L -91.3545,40.6737
 L -80.9017,58.7785 L -66.9131,74.3145 L -50,86.6025 L -30.9017,95.1057 L -10.4528,99.4522 L 10.4528,99.4522
 L 30.9017,95.1057 L 50,86.6025 L 66.9131,74.3145 L 80.9017,58.7785 L 91.3545,40.6737 L 97.8148,20.7912
 z
" stroke="black" fill="lightgray" stroke-width="0.5"/>
</svg>
