<?xml version="1.0" standalone="no"?>
<!DOCTYPE svg PUBLIC "-//W3C//DTD SVG 1.1//EN" "http://www.w3.org/Graphics/SVG/1.1/DTD/svg11.dtd">
<svg width="50mm" height="50mm" viewBox="-25 -25 50 50" xmlns="http://www.w3.org/2000/svg" version="1.1">
<title>OpenSCAD Model</title>
<path d="
M 25,-0 L 24.4537,-5.19779 L 22.8386,-10.1684 L 20.2254,-14.6946 L 16.7283,-18.5786 L 12.5,-21.6506
 L 7.72542,-23.7764 L 2.61321,-24.863 L -2.61321,-24.863 L -7.72542,-23.7764 L -12.5,-21.6506 L -16.7283,-18.5786
 L -20.2254,-14.6946 L -22.8386,-10.1684 L -24.4537,-5.19779 L -25,0 L -24.4537,5.19779 L -22.8386,10.1684
 L -20.2254,14.6946 L -16.7283,18.5786 L -12.5,21.6506 L -7.72542,23.7764 L -2.61321,24.863 L 2.61321,24.863
 L 7.72542,23.7764 L 12.5,21.6506 L 16.7283,18.5786 L 20.2254,14.6946 L 22.8386,10.1684 L 24.4537,5.19779
 z
" stroke="black" fill="lightgray" stroke-width="0.5"/>
</svg>
