  0
SECTION
  2
BLOCKS
  0
ENDSEC
  0
SECTION
  2
ENTITIES
  0
LINE
  8
0
 10
100
 20
0
 11
97.8148
 21
20.7912
  0
LINE
  8
0
 10
97.8148
 20
20.7912
 11
91.3545
 21
40.6737
  0
LINE
  8
0
 10
91.3545
 20
40.6737
 11
80.9017
 21
58.7785
  0
LINE
  8
0
 10
80.9017
 20
58.7785
 11
66.9131
 21
74.3145
  0
LINE
  8
0
 10
66.9131
 20
74.3145
 11
50
 21
86.6025
  0
LINE
  8
0
 10
50
 20
86.6025
 11
30.9017
 21
95.1057
  0
LINE
  8
0
 10
30.9017
 20
95.1057
 11
10.4528
 21
99.4522
  0
LINE
  8
0
 10
10.4528
 20
99.4522
 11
-10.4528
 21
99.4522
  0
LINE
  8
0
 10
-10.4528
 20
99.4522
 11
-30.9017
 21
95.1057
  0
LINE
  8
0
 10
-30.9017
 20
95.1057
 11
-50
 21
86.6025
  0
LINE
  8
0
 10
-50
 20
86.6025
 11
-66.9131
 21
74.3145
  0
LINE
  8
0
 10
-66.9131
 20
74.3145
 11
-80.9017
 21
58.7785
  0
LINE
  8
0
 10
-80.9017
 20
58.7785
 11
-91.3545
 21
40.6737
  0
LINE
  8
0
 10
-91.3545
 20
40.6737
 11
-97.8148
 21
20.7912
  0
LINE
  8
0
 10
-97.8148
 20
20.7912
 11
-100
 21
-0
  0
LINE
  8
0
 10
-100
 20
-0
 11
-97.8148
 21
-20.7912
  0
LINE
  8
0
 10
-97.8148
 20
-20.7912
 11
-91.3545
 21
-40.6737
  0
LINE
  8
0
 10
-91.3545
 20
-40.6737
 11
-80.9017
 21
-58.7785
  0
LINE
  8
0
 10
-80.9017
 20
-58.7785
 11
-66.9131
 21
-74.3145
  0
LINE
  8
0
 10
-66.9131
 20
-74.3145
 11
-50
 21
-86.6025
  0
LINE
  8
0
 10
-50
 20
-86.6025
 11
-30.9017
 21
-95.1057
  0
LINE
  8
0
 10
-30.9017
 20
-95.1057
 11
-10.4528
 21
-99.4522
  0
LINE
  8
0
 10
-10.4528
 20
-99.4522
 11
10.4528
 21
-99.4522
  0
LINE
  8
0
 10
10.4528
 20
-99.4522
 11
30.9017
 21
-95.1057
  0
LINE
  8
0
 10
30.9017
 20
-95.1057
 11
50
 21
-86.6025
  0
LINE
  8
0
 10
50
 20
-86.6025
 11
66.9131
 21
-74.3145
  0
LINE
  8
0
 10
66.9131
 20
-74.3145
 11
80.9017
 21
-58.7785
  0
LINE
  8
0
 10
80.9017
 20
-58.7785
 11
91.3545
 21
-40.6737
  0
LINE
  8
0
 10
91.3545
 20
-40.6737
 11
97.8148
 21
-20.7912
  0
LINE
  8
0
 10
97.8148
 20
-20.7912
 11
100
 21
0
  0
ENDSEC
  0
SECTION
  2
OBJECTS
  0
DICTIONARY
  0
ENDSEC
  0
EOF
