<?xml version="1.0" standalone="no"?>
<!DOCTYPE svg PUBLIC "-//W3C//DTD SVG 1.1//EN" "http://www.w3.org/Graphics/SVG/1.1/DTD/svg11.dtd">
<svg width="100mm" height="100mm" viewBox="-50 -50 100 100" xmlns="http://www.w3.org/2000/svg" version="1.1">
<title>OpenSCAD Model</title>
<path d="
M 50,-0 L 48.9074,-10.3956 L 45.6773,-20.3368 L 40.4508,-29.3893 L 33.4565,-37.1572 L 25,-43.3013
 L 15.4508,-47.5528 L 5.22642,-49.7261 L -5.22642,-49.7261 L -15.4508,-47.5528 L -25,-43.3013 L -33.4565,-37.1572
 L -40.4508,-29.3893 L -45.6773,-20.3368 L -48.9074,-10.3956 L -50,0 L -48.9074,10.3956 L -45.6773,20.3368
 L -40.4508,29.3893 L -33.4565,37.1572 L -25,43.3013 L -15.4508,47.5528 L -5.22642,49.7261 L 5.22642,49.7261
 L 15.4508,47.5528 L 25,43.3013 L 33.4565,37.1572 L 40.4508,29.3893 L 45.6773,20.3368 L 48.9074,10.3956
 z
" stroke="black" fill="lightgray" stroke-width="0.5"/>
</svg>
