  0
SECTION
  2
BLOCKS
  0
ENDSEC
  0
SECTION
  2
ENTITIES
  0
LINE
  8
0
 10
10
 20
0
 11
9.78148
 21
2.07912
  0
LINE
  8
0
 10
9.78148
 20
2.07912
 11
9.13545
 21
4.06737
  0
LINE
  8
0
 10
9.13545
 20
4.06737
 11
8.09017
 21
5.87785
  0
LINE
  8
0
 10
8.09017
 20
5.87785
 11
6.69131
 21
7.43145
  0
LINE
  8
0
 10
6.69131
 20
7.43145
 11
5
 21
8.66025
  0
LINE
  8
0
 10
5
 20
8.66025
 11
3.09017
 21
9.51057
  0
LINE
  8
0
 10
3.09017
 20
9.51057
 11
1.04528
 21
9.94522
  0
LINE
  8
0
 10
1.04528
 20
9.94522
 11
-1.04528
 21
9.94522
  0
LINE
  8
0
 10
-1.04528
 20
9.94522
 11
-3.09017
 21
9.51057
  0
LINE
  8
0
 10
-3.09017
 20
9.51057
 11
-5
 21
8.66025
  0
LINE
  8
0
 10
-5
 20
8.66025
 11
-6.69131
 21
7.43145
  0
LINE
  8
0
 10
-6.69131
 20
7.43145
 11
-8.09017
 21
5.87785
  0
LINE
  8
0
 10
-8.09017
 20
5.87785
 11
-9.13545
 21
4.06737
  0
LINE
  8
0
 10
-9.13545
 20
4.06737
 11
-9.78148
 21
2.07912
  0
LINE
  8
0
 10
-9.78148
 20
2.07912
 11
-10
 21
-0
  0
LINE
  8
0
 10
-10
 20
-0
 11
-9.78148
 21
-2.07912
  0
LINE
  8
0
 10
-9.78148
 20
-2.07912
 11
-9.13545
 21
-4.06737
  0
LINE
  8
0
 10
-9.13545
 20
-4.06737
 11
-8.09017
 21
-5.87785
  0
LINE
  8
0
 10
-8.09017
 20
-5.87785
 11
-6.69131
 21
-7.43145
  0
LINE
  8
0
 10
-6.69131
 20
-7.43145
 11
-5
 21
-8.66025
  0
LINE
  8
0
 10
-5
 20
-8.66025
 11
-3.09017
 21
-9.51057
  0
LINE
  8
0
 10
-3.09017
 20
-9.51057
 11
-1.04528
 21
-9.94522
  0
LINE
  8
0
 10
-1.04528
 20
-9.94522
 11
1.04528
 21
-9.94522
  0
LINE
  8
0
 10
1.04528
 20
-9.94522
 11
3.09017
 21
-9.51057
  0
LINE
  8
0
 10
3.09017
 20
-9.51057
 11
5
 21
-8.66025
  0
LINE
  8
0
 10
5
 20
-8.66025
 11
6.69131
 21
-7.43145
  0
LINE
  8
0
 10
6.69131
 20
-7.43145
 11
8.09017
 21
-5.87785
  0
LINE
  8
0
 10
8.09017
 20
-5.87785
 11
9.13545
 21
-4.06737
  0
LINE
  8
0
 10
9.13545
 20
-4.06737
 11
9.78148
 21
-2.07912
  0
LINE
  8
0
 10
9.78148
 20
-2.07912
 11
10
 21
0
  0
ENDSEC
  0
SECTION
  2
OBJECTS
  0
DICTIONARY
  0
ENDSEC
  0
EOF
