  0
SECTION
  2
BLOCKS
  0
ENDSEC
  0
SECTION
  2
ENTITIES
  0
LINE
  8
0
 10
50
 20
0
 11
48.9074
 21
10.3956
  0
LINE
  8
0
 10
48.9074
 20
10.3956
 11
45.6773
 21
20.3368
  0
LINE
  8
0
 10
45.6773
 20
20.3368
 11
40.4508
 21
29.3893
  0
LINE
  8
0
 10
40.4508
 20
29.3893
 11
33.4565
 21
37.1572
  0
LINE
  8
0
 10
33.4565
 20
37.1572
 11
25
 21
43.3013
  0
LINE
  8
0
 10
25
 20
43.3013
 11
15.4508
 21
47.5528
  0
LINE
  8
0
 10
15.4508
 20
47.5528
 11
5.22642
 21
49.7261
  0
LINE
  8
0
 10
5.22642
 20
49.7261
 11
-5.22642
 21
49.7261
  0
LINE
  8
0
 10
-5.22642
 20
49.7261
 11
-15.4508
 21
47.5528
  0
LINE
  8
0
 10
-15.4508
 20
47.5528
 11
-25
 21
43.3013
  0
LINE
  8
0
 10
-25
 20
43.3013
 11
-33.4565
 21
37.1572
  0
LINE
  8
0
 10
-33.4565
 20
37.1572
 11
-40.4508
 21
29.3893
  0
LINE
  8
0
 10
-40.4508
 20
29.3893
 11
-45.6773
 21
20.3368
  0
LINE
  8
0
 10
-45.6773
 20
20.3368
 11
-48.9074
 21
10.3956
  0
LINE
  8
0
 10
-48.9074
 20
10.3956
 11
-50
 21
-0
  0
LINE
  8
0
 10
-50
 20
-0
 11
-48.9074
 21
-10.3956
  0
LINE
  8
0
 10
-48.9074
 20
-10.3956
 11
-45.6773
 21
-20.3368
  0
LINE
  8
0
 10
-45.6773
 20
-20.3368
 11
-40.4508
 21
-29.3893
  0
LINE
  8
0
 10
-40.4508
 20
-29.3893
 11
-33.4565
 21
-37.1572
  0
LINE
  8
0
 10
-33.4565
 20
-37.1572
 11
-25
 21
-43.3013
  0
LINE
  8
0
 10
-25
 20
-43.3013
 11
-15.4508
 21
-47.5528
  0
LINE
  8
0
 10
-15.4508
 20
-47.5528
 11
-5.22642
 21
-49.7261
  0
LINE
  8
0
 10
-5.22642
 20
-49.7261
 11
5.22642
 21
-49.7261
  0
LINE
  8
0
 10
5.22642
 20
-49.7261
 11
15.4508
 21
-47.5528
  0
LINE
  8
0
 10
15.4508
 20
-47.5528
 11
25
 21
-43.3013
  0
LINE
  8
0
 10
25
 20
-43.3013
 11
33.4565
 21
-37.1572
  0
LINE
  8
0
 10
33.4565
 20
-37.1572
 11
40.4508
 21
-29.3893
  0
LINE
  8
0
 10
40.4508
 20
-29.3893
 11
45.6773
 21
-20.3368
  0
LINE
  8
0
 10
45.6773
 20
-20.3368
 11
48.9074
 21
-10.3956
  0
LINE
  8
0
 10
48.9074
 20
-10.3956
 11
50
 21
0
  0
ENDSEC
  0
SECTION
  2
OBJECTS
  0
DICTIONARY
  0
ENDSEC
  0
EOF
