<?xml version="1.0" standalone="no"?>
<!DOCTYPE svg PUBLIC "-//W3C//DTD SVG 1.1//EN" "http://www.w3.org/Graphics/SVG/1.1/DTD/svg11.dtd">
<svg width="300mm" height="300mm" viewBox="-150 -150 300 300" xmlns="http://www.w3.org/2000/svg" version="1.1">
<title>OpenSCAD Model</title>
<path d="
M 150,-0 L 146.722,-31.1868 L 137.032,-61.0105 L 121.353,-88.1678 L 100.37,-111.472 L 75,-129.904
 L 46.3525,-142.658 L 15.6793,-149.178 L -15.6793,-149.178 L -46.3525,-142.658 L -75,-129.904 L -100.37,-111.472
 L -121.353,-88.1678 L -137.032,-61.0105 L -146.722,-31.1868 L -150,0 L -146.722,31.1868 L -137.032,61.0105
 L -121.353,88.1678 L -100.37,111.472 L -75,129.904 L -46.3525,142.658 L -15.6793,149.178 L 15.6793,149.178
 L 46.3525,142.658 L 75,129.904 L 100.37,111.472 L 121.353,88.1678 L 137.032,61.0105 L 146.722,31.1868
 z
" stroke="black" fill="lightgray" stroke-width="0.5"/>
</svg>
