  0
SECTION
  2
BLOCKS
  0
ENDSEC
  0
SECTION
  2
ENTITIES
  0
LINE
  8
0
 10
150
 20
0
 11
146.722
 21
31.1868
  0
LINE
  8
0
 10
146.722
 20
31.1868
 11
137.032
 21
61.0105
  0
LINE
  8
0
 10
137.032
 20
61.0105
 11
121.353
 21
88.1678
  0
LINE
  8
0
 10
121.353
 20
88.1678
 11
100.37
 21
111.472
  0
LINE
  8
0
 10
100.37
 20
111.472
 11
75
 21
129.904
  0
LINE
  8
0
 10
75
 20
129.904
 11
46.3525
 21
142.658
  0
LINE
  8
0
 10
46.3525
 20
142.658
 11
15.6793
 21
149.178
  0
LINE
  8
0
 10
15.6793
 20
149.178
 11
-15.6793
 21
149.178
  0
LINE
  8
0
 10
-15.6793
 20
149.178
 11
-46.3525
 21
142.658
  0
LINE
  8
0
 10
-46.3525
 20
142.658
 11
-75
 21
129.904
  0
LINE
  8
0
 10
-75
 20
129.904
 11
-100.37
 21
111.472
  0
LINE
  8
0
 10
-100.37
 20
111.472
 11
-121.353
 21
88.1678
  0
LINE
  8
0
 10
-121.353
 20
88.1678
 11
-137.032
 21
61.0105
  0
LINE
  8
0
 10
-137.032
 20
61.0105
 11
-146.722
 21
31.1868
  0
LINE
  8
0
 10
-146.722
 20
31.1868
 11
-150
 21
-0
  0
LINE
  8
0
 10
-150
 20
-0
 11
-146.722
 21
-31.1868
  0
LINE
  8
0
 10
-146.722
 20
-31.1868
 11
-137.032
 21
-61.0105
  0
LINE
  8
0
 10
-137.032
 20
-61.0105
 11
-121.353
 21
-88.1678
  0
LINE
  8
0
 10
-121.353
 20
-88.1678
 11
-100.37
 21
-111.472
  0
LINE
  8
0
 10
-100.37
 20
-111.472
 11
-75
 21
-129.904
  0
LINE
  8
0
 10
-75
 20
-129.904
 11
-46.3525
 21
-142.658
  0
LINE
  8
0
 10
-46.3525
 20
-142.658
 11
-15.6793
 21
-149.178
  0
LINE
  8
0
 10
-15.6793
 20
-149.178
 11
15.6793
 21
-149.178
  0
LINE
  8
0
 10
15.6793
 20
-149.178
 11
46.3525
 21
-142.658
  0
LINE
  8
0
 10
46.3525
 20
-142.658
 11
75
 21
-129.904
  0
LINE
  8
0
 10
75
 20
-129.904
 11
100.37
 21
-111.472
  0
LINE
  8
0
 10
100.37
 20
-111.472
 11
121.353
 21
-88.1678
  0
LINE
  8
0
 10
121.353
 20
-88.1678
 11
137.032
 21
-61.0105
  0
LINE
  8
0
 10
137.032
 20
-61.0105
 11
146.722
 21
-31.1868
  0
LINE
  8
0
 10
146.722
 20
-31.1868
 11
150
 21
0
  0
ENDSEC
  0
SECTION
  2
OBJECTS
  0
DICTIONARY
  0
ENDSEC
  0
EOF
