  0
SECTION
  2
BLOCKS
  0
ENDSEC
  0
SECTION
  2
ENTITIES
  0
LINE
  8
0
 10
25
 20
0
 11
24.4537
 21
5.19779
  0
LINE
  8
0
 10
24.4537
 20
5.19779
 11
22.8386
 21
10.1684
  0
LINE
  8
0
 10
22.8386
 20
10.1684
 11
20.2254
 21
14.6946
  0
LINE
  8
0
 10
20.2254
 20
14.6946
 11
16.7283
 21
18.5786
  0
LINE
  8
0
 10
16.7283
 20
18.5786
 11
12.5
 21
21.6506
  0
LINE
  8
0
 10
12.5
 20
21.6506
 11
7.72542
 21
23.7764
  0
LINE
  8
0
 10
7.72542
 20
23.7764
 11
2.61321
 21
24.863
  0
LINE
  8
0
 10
2.61321
 20
24.863
 11
-2.61321
 21
24.863
  0
LINE
  8
0
 10
-2.61321
 20
24.863
 11
-7.72542
 21
23.7764
  0
LINE
  8
0
 10
-7.72542
 20
23.7764
 11
-12.5
 21
21.6506
  0
LINE
  8
0
 10
-12.5
 20
21.6506
 11
-16.7283
 21
18.5786
  0
LINE
  8
0
 10
-16.7283
 20
18.5786
 11
-20.2254
 21
14.6946
  0
LINE
  8
0
 10
-20.2254
 20
14.6946
 11
-22.8386
 21
10.1684
  0
LINE
  8
0
 10
-22.8386
 20
10.1684
 11
-24.4537
 21
5.19779
  0
LINE
  8
0
 10
-24.4537
 20
5.19779
 11
-25
 21
-0
  0
LINE
  8
0
 10
-25
 20
-0
 11
-24.4537
 21
-5.19779
  0
LINE
  8
0
 10
-24.4537
 20
-5.19779
 11
-22.8386
 21
-10.1684
  0
LINE
  8
0
 10
-22.8386
 20
-10.1684
 11
-20.2254
 21
-14.6946
  0
LINE
  8
0
 10
-20.2254
 20
-14.6946
 11
-16.7283
 21
-18.5786
  0
LINE
  8
0
 10
-16.7283
 20
-18.5786
 11
-12.5
 21
-21.6506
  0
LINE
  8
0
 10
-12.5
 20
-21.6506
 11
-7.72542
 21
-23.7764
  0
LINE
  8
0
 10
-7.72542
 20
-23.7764
 11
-2.61321
 21
-24.863
  0
LINE
  8
0
 10
-2.61321
 20
-24.863
 11
2.61321
 21
-24.863
  0
LINE
  8
0
 10
2.61321
 20
-24.863
 11
7.72542
 21
-23.7764
  0
LINE
  8
0
 10
7.72542
 20
-23.7764
 11
12.5
 21
-21.6506
  0
LINE
  8
0
 10
12.5
 20
-21.6506
 11
16.7283
 21
-18.5786
  0
LINE
  8
0
 10
16.7283
 20
-18.5786
 11
20.2254
 21
-14.6946
  0
LINE
  8
0
 10
20.2254
 20
-14.6946
 11
22.8386
 21
-10.1684
  0
LINE
  8
0
 10
22.8386
 20
-10.1684
 11
24.4537
 21
-5.19779
  0
LINE
  8
0
 10
24.4537
 20
-5.19779
 11
25
 21
0
  0
ENDSEC
  0
SECTION
  2
OBJECTS
  0
DICTIONARY
  0
ENDSEC
  0
EOF
